<svg width="17" height="17" viewBox="0 0 17 17" fill="none" xmlns="http://www.w3.org/2000/svg">
<path d="M4.93578 1.36255C5.25367 1.36255 5.54653 1.53493 5.70084 1.81285L6.77114 3.74083C6.91127 3.99327 6.91787 4.2986 6.78872 4.55685L5.75762 6.6191C5.75762 6.6191 6.05644 8.15534 7.30699 9.40589C8.55754 10.6564 10.0887 10.9501 10.0887 10.9501L12.1505 9.91916C12.409 9.78992 12.7145 9.79662 12.9671 9.93701L14.9005 11.0119C15.1781 11.1663 15.3503 11.459 15.3503 11.7767V13.9964C15.3503 15.1267 14.3004 15.9431 13.2293 15.5817C11.0296 14.8395 7.61507 13.4263 5.45085 11.262C3.28658 9.0978 1.87337 5.68324 1.13113 3.48354C0.769751 2.41249 1.58617 1.36255 2.71652 1.36255H4.93578Z" fill="#1298BD" stroke="#1298BD" stroke-width="1.3125" stroke-linejoin="round"/>
</svg>
