<svg width="17" height="17" viewBox="0 0 17 17" fill="none" xmlns="http://www.w3.org/2000/svg">
<path d="M5.43578 1.36255C5.75367 1.36255 6.04653 1.53493 6.20084 1.81285L7.27114 3.74083C7.41127 3.99327 7.41787 4.2986 7.28872 4.55685L6.25762 6.6191C6.25762 6.6191 6.55644 8.15534 7.80699 9.40589C9.05754 10.6564 10.5887 10.9501 10.5887 10.9501L12.6505 9.91916C12.909 9.78992 13.2145 9.79662 13.4671 9.93701L15.4005 11.0119C15.6781 11.1663 15.8503 11.459 15.8503 11.7767V13.9964C15.8503 15.1267 14.8004 15.9431 13.7293 15.5817C11.5296 14.8395 8.11507 13.4263 5.95085 11.262C3.78658 9.0978 2.37337 5.68324 1.63113 3.48354C1.26975 2.41249 2.08617 1.36255 3.21652 1.36255H5.43578Z" fill="white" stroke="white" stroke-width="1.3125" stroke-linejoin="round"/>
</svg>
