<svg width="271" height="354" viewBox="0 0 271 354" fill="none" xmlns="http://www.w3.org/2000/svg">
<path d="M264.067 1.00206C265.227 0.442244 267.854 -0.481451 269.079 0.30229C270.61 1.28197 271.167 3.52123 270.958 5.48058C270.791 7.04806 262.025 47.8866 257.663 68.1099C257.315 69.6961 255.784 72.5884 252.443 71.4688C249.102 70.3492 237.054 61.0552 231.439 56.5067L220.703 66.3605C220.206 66.8214 219.383 67.0838 218.714 67.2304C218.441 67.2975 218.164 67.3473 217.89 67.3734C216.962 67.4621 216.113 67.2983 215.413 66.3605C213.91 64.3452 209.899 49.5877 208.135 42.38L188.059 35.7106C186.574 35.0808 184.383 33.2054 187.502 30.7422L264.067 1.00206Z" fill="white"/>
<path d="M251.252 15.1996L208.135 42.3801C210.574 51.8884 214.555 65.2628 215.18 66.0151C216.535 67.6451 217.18 67.4195 217.89 67.3734L219.138 47.674L255.034 15.1996C255.309 14.9232 255.515 13.8868 254.759 13.6104C254.154 13.3893 252.169 14.5777 251.252 15.1996Z" fill="#E6E6E6"/>
<path d="M231.439 56.5067L219.559 47.8134L217.89 67.3734C218.739 67.4275 220.6 66.83 221.413 65.7434L231.439 56.5067Z" fill="#CCCCCC"/>
<path d="M59.3161 97.133C58.2986 101.17 54.983 109.288 54.9539 113.475L55.1831 113.179C55.805 113.972 56.49 114.713 57.2314 115.396C58.2097 114.043 59.4591 112.909 60.9003 112.066C60.2987 113.889 60.0687 115.815 60.2236 117.729C62.5592 122.636 69.8197 119.323 74.1796 118.16C79.2983 122.622 85.3718 123.143 92.6936 119.183C94.8824 119.112 97.317 118.919 98.6562 117.439C99.9954 115.959 93.0297 108.391 93.6006 106.495C97.6674 92.9922 97.4375 94.4608 92.1079 89.3124C90.9351 88.1795 90.6817 86.2854 89.2999 85.2401C87.3829 83.7914 84.7242 83.6269 82.2813 83.5376C82.9057 83.486 83.5063 83.2747 84.0253 82.924C84.5443 82.5733 84.9642 82.095 85.2446 81.5351C85.4815 80.9772 85.5596 80.3648 85.4703 79.7654C85.3809 79.166 85.1277 78.6029 84.7384 78.1381C83.6925 76.8401 81.807 76.2588 80.068 76.2858C78.3666 76.4004 76.693 76.7759 75.1059 77.3991C74.0616 77.6833 73.0766 78.152 72.1976 78.7831C71.7831 79.0822 71.4698 79.5005 71.2995 79.9822C71.1293 80.464 71.1103 80.9861 71.2451 81.479C71.4507 81.923 71.754 82.315 72.1324 82.6256C72.5108 82.9361 72.9544 83.1574 73.4303 83.2727C74.1588 83.4702 74.9103 83.57 75.6652 83.5695C72.2006 83.5905 68.8246 84.6651 65.9863 86.6504C62.4388 89.2087 60.3391 93.0972 59.3161 97.133Z" fill="#2F2E41"/>
<path d="M94.5046 105.341C96.2848 97.9365 91.7211 90.4922 84.3113 88.7134C76.9016 86.9346 69.4517 91.4948 67.6715 98.899C65.8913 106.303 70.455 113.748 77.8648 115.526C85.2746 117.305 92.7245 112.745 94.5046 105.341Z" fill="#FFB6B6"/>
<path d="M71.8773 96.5815C72.9958 98.8679 75.3662 99.3317 77.5256 99.5284C78.2067 99.5925 78.8905 99.6455 79.5783 99.6819C79.7836 99.3393 80.0055 99.0007 80.2413 98.6772C81.2196 97.3245 82.4691 96.1902 83.9102 95.3467C83.4334 96.7874 83.1913 98.2954 83.1934 99.8128C84.4842 99.8244 85.7775 99.8015 87.0732 99.7441C88.1873 99.8273 89.2909 99.4796 90.1559 98.7728C91.0208 98.0661 91.581 97.0543 91.7206 95.9466C93.1447 97.6923 94.7663 99.2981 96.7532 99.7985C99.0728 100.292 95.4029 99.2177 96.5593 97.1487C97.5004 95.62 97.8775 93.6868 98.0868 91.842C98.3331 89.6493 98.2978 87.1667 97.065 85.9642C96.076 84.9897 92.1803 88.109 90.8549 88.3874C87.9314 89.0152 93.5631 87.0001 90.8294 88.211L90.6621 88.7849C90.7518 85.7825 89.3067 83.1019 87.2072 82.3639C85.7918 81.8721 84.2143 82.2011 82.6852 82.5476C80.7093 82.9062 78.7967 83.5526 77.0086 84.4661C74.9671 85.5866 73.3221 87.3101 72.2984 89.4007C71.2082 91.6715 70.9122 94.6069 71.8773 96.5815Z" fill="#2F2E41"/>
<path d="M84.6894 81.1643C84.5491 81.1429 84.9055 81.1465 84.7848 81.1662C84.8445 81.1545 84.9032 81.138 84.9603 81.1169C84.97 81.1135 85.1002 81.0516 85.0142 81.0958C85.209 81.0075 85.3741 80.8648 85.4895 80.6848C85.7566 80.2443 85.9476 79.762 86.0544 79.2581C86.1853 78.5936 86.4554 77.9643 86.8469 77.4114C86.9592 77.2632 87.1049 77.1435 87.2722 77.0621C87.4395 76.9807 87.6236 76.9399 87.8096 76.9429C87.9956 76.946 88.1783 76.9928 88.3428 77.0796C88.5073 77.1664 88.649 77.2908 88.7564 77.4426C89.1026 77.995 88.9582 78.7532 88.8468 79.3571C88.7326 79.9844 88.5178 80.5891 88.2107 81.148C87.6935 82.0641 86.9208 82.8099 85.9867 83.2948C84.9063 83.8616 83.6718 84.0653 82.4664 83.8757C82.3047 83.8331 82.159 83.7444 82.0469 83.6204C81.9348 83.4965 81.8612 83.3426 81.8351 83.1776C81.809 83.0126 81.8314 82.8436 81.8997 82.6911C81.9681 82.5386 82.0793 82.4093 82.2199 82.3188L84.044 81.2664C84.1396 81.2078 84.2458 81.1687 84.3566 81.1512C84.4673 81.1337 84.5804 81.1382 84.6894 81.1643C84.7984 81.1905 84.9012 81.2379 84.9919 81.3037C85.0826 81.3696 85.1594 81.4526 85.2179 81.5482C85.2765 81.6437 85.3157 81.7498 85.3332 81.8605C85.3507 81.9711 85.3463 82.0841 85.3201 82.1931C85.2939 82.302 85.2465 82.4047 85.1806 82.4953C85.1147 82.5859 85.0315 82.6627 84.9359 82.7212L83.1117 83.7737L82.8652 82.2168C83.1157 82.2536 83.3695 82.2623 83.6218 82.2427C83.8927 82.2331 84.1608 82.1851 84.4181 82.1001C84.6665 82.0327 84.9067 81.9384 85.1347 81.8189C85.2806 81.742 85.4225 81.6577 85.5599 81.5665C85.6098 81.5333 85.659 81.4992 85.7077 81.4642C85.7042 81.4667 85.9112 81.3054 85.8209 81.3802C86.0491 81.1867 86.2587 80.9724 86.447 80.7401C86.5134 80.6578 86.573 80.5701 86.6252 80.4781C86.7169 80.328 86.7996 80.1728 86.8732 80.0131C87.0211 79.676 87.1264 79.3217 87.1867 78.9586C87.2159 78.8054 87.2371 78.6509 87.2502 78.4955C87.2483 78.4115 87.2521 78.3275 87.2616 78.2439C87.3071 78.0419 87.2633 78.3581 87.3571 78.4302L87.7488 78.6441C87.8184 78.6549 87.8895 78.6499 87.9569 78.6295C88.0243 78.6092 88.0862 78.5739 88.1381 78.5263C88.1723 78.4613 88.1644 78.4724 88.1145 78.5596C88.0566 78.6622 88.0053 78.7683 87.9608 78.8773C87.8656 79.1328 87.7834 79.3929 87.7146 79.6566C87.5743 80.2168 87.3746 80.7603 87.1189 81.2781C86.8703 81.8004 86.463 82.231 85.9552 82.5084C85.4473 82.7859 84.8648 82.896 84.2906 82.8232C84.0714 82.7688 83.8824 82.6304 83.7644 82.4379C83.6464 82.2455 83.6089 82.0144 83.6599 81.7945C83.7168 81.5769 83.8558 81.3898 84.0477 81.2723C84.2396 81.1549 84.4695 81.1162 84.6894 81.1643Z" fill="#2F2E41"/>
<path d="M79.6431 341.367L85.9747 341.367L88.9867 316.964H79.642L79.6431 341.367Z" fill="#FFB6B6"/>
<path d="M88.0815 341.936V337.647L86.417 337.749L79.6416 338.15L78.0734 338.246L76.8104 353.381H81.306L81.4505 352.616L82.1034 349.14L83.7893 352.616L84.1586 353.381H96.0772C96.7865 353.376 97.4653 353.092 97.9663 352.591C98.4673 352.089 98.7501 351.41 98.7532 350.701C99.2562 348.354 89.3445 343.279 88.0815 341.936Z" fill="#2F2E41"/>
<path d="M9.1559 333.742L14.3689 337.333L30.7086 318.949L23.0146 313.65L9.1559 333.742Z" fill="#FFB6B6"/>
<path d="M15.78 338.997L18.216 335.465L16.7878 334.605L10.9814 331.093L9.63566 330.283L0 342.028L3.70144 344.577L4.25477 344.03L6.76661 341.538L6.1804 345.356L6.0501 346.195L15.8634 352.954C16.4499 353.353 17.17 353.504 17.8675 353.375C18.5649 353.246 19.1833 352.847 19.5883 352.266C21.336 350.618 16.0576 340.818 15.78 338.997Z" fill="#2F2E41"/>
<path d="M166.836 93.2713C166.347 94.3349 165.461 95.1657 164.368 95.587C163.276 96.0083 162.061 95.9868 160.984 95.5271C160.766 95.4302 160.557 95.3155 160.359 95.1842L133.179 115.76L124.639 108.535L159.381 88.8776C159.989 88.0971 160.84 87.5398 161.799 87.2929C162.758 87.046 163.772 87.1233 164.682 87.5127C165.724 87.9703 166.542 88.8228 166.955 89.8826C167.368 90.9424 167.343 92.1228 166.885 93.1641C166.869 93.2 166.853 93.2358 166.836 93.2713Z" fill="#FFB6B6"/>
<path d="M87.0189 151.06C87.0189 151.06 77.4135 148.611 84.1423 136.007C90.871 123.402 116.751 109.347 118.542 109.172C120.333 108.997 118.88 110.702 121.983 107.891C124.507 105.605 125.54 107.782 125.634 106.671C125.881 103.739 129.707 108.732 129.199 105.131C128.691 101.529 137.335 113.113 137.335 113.113C137.335 113.113 137.332 115.26 132.792 117.002C130.242 117.981 128.463 117.152 128.523 119.344C128.583 121.536 123.353 120.716 122.675 121.195C121.997 121.675 110.559 136.904 110.559 136.904L87.0189 151.06Z" fill="#BD1212"/>
<path d="M111.001 203.841L111.164 202.129L104.122 182.837L74.1111 188.62C74.1111 188.62 58.6438 207.659 62.0833 220.262C63.0161 223.679 51.2793 246.379 55.1421 243.931C59.0048 241.482 51.1245 248.297 53.1427 248.456C55.1608 248.616 51.9915 250.992 51.3912 252.287C37.5672 282.122 15.4585 321.079 15.4585 321.079C15.4585 321.079 20.0566 333.995 27.3118 326.773C34.567 319.551 83.1027 255.395 83.1027 255.395C83.1027 255.395 82.4485 259.572 81.5363 265.923C78.7183 285.542 74.2918 325.039 78.2247 327.084C81.3645 328.708 84.8799 329.469 88.4109 329.289C88.4109 329.289 114.441 269.143 111.001 257.686" fill="#2F2E41"/>
<path d="M93.2561 123.377L90.463 117.575L75.3302 119.407L73.7654 124.14C69.3799 128.518 65.7675 133.606 63.0812 139.189C58.8939 148.127 72.8297 187.611 70.5367 189.902C68.2437 192.193 59.7475 193.428 63.5692 196.235C67.3909 199.042 63.5692 197.247 62.6168 200.449C61.6644 203.652 59.7891 216.398 59.7891 216.398C59.7891 216.398 74.3387 228.585 83.5108 210.255C96.8867 211.401 99.5619 198.798 99.5619 198.798L104.059 191.356C109.893 188.688 100.9 158.128 103.193 152.018C105.486 145.908 93.2561 123.377 93.2561 123.377Z" fill="#BD1212"/>
<path d="M107.086 188.795C107.121 186.551 107.114 184.134 108.111 182.066C108.86 180.513 110.251 178.961 112.083 178.831C113.641 178.721 115.409 179.641 115.552 181.333C115.723 183.345 114.028 185.266 112.656 186.536C110.998 188.057 108.979 189.132 106.791 189.658C106.637 189.705 106.5 189.794 106.396 189.916C106.293 190.038 106.226 190.188 106.206 190.347C106.185 190.506 106.21 190.667 106.279 190.812C106.348 190.957 106.457 191.078 106.594 191.163C108.336 192.126 109.877 193.416 111.13 194.962C112.288 196.391 113.485 198.278 113.729 200.137C113.834 200.929 113.693 201.893 112.854 202.224C112.056 202.538 111.086 202.128 110.402 201.724C108.793 200.654 107.533 199.137 106.775 197.36C105.841 195.348 105.526 193.103 105.871 190.911C106.041 189.874 104.454 189.429 104.282 190.473C103.527 195.075 105.365 200.556 109.486 203.093C111.361 204.247 114.221 204.45 115.162 202.014C116.015 199.807 114.604 197.155 113.425 195.339C111.912 193.012 109.852 191.09 107.425 189.741L107.228 191.246C109.621 190.657 111.831 189.489 113.663 187.843C115.416 186.27 117.304 183.935 117.207 181.441C117.119 179.2 115.328 177.575 113.179 177.248C110.844 176.891 108.76 178.163 107.421 180.007C105.586 182.536 105.485 185.793 105.439 188.795C105.446 189.008 105.536 189.211 105.69 189.359C105.843 189.507 106.049 189.59 106.262 189.59C106.476 189.59 106.681 189.507 106.835 189.359C106.988 189.211 107.079 189.008 107.086 188.795Z" fill="#2F2E41"/>
<path d="M40.1828 220.228C41.2217 219.687 42.0084 218.763 42.3755 217.651C42.7426 216.54 42.6612 215.329 42.1485 214.276C42.0409 214.064 41.9159 213.861 41.7748 213.669L60.9983 185.526L53.3545 177.36L35.4229 213.005C34.6727 213.651 34.1578 214.527 33.9584 215.497C33.7589 216.466 33.8863 217.474 34.3206 218.363C34.5725 218.867 34.9213 219.316 35.347 219.686C35.7727 220.055 36.267 220.336 36.8016 220.514C37.3362 220.693 37.9008 220.764 38.463 220.724C39.0251 220.684 39.574 220.534 40.0781 220.282C40.1133 220.265 40.1482 220.247 40.1828 220.228Z" fill="#FFB6B6"/>
<path d="M94.0009 137.713C94.0009 137.713 91.0784 128.248 78.8124 135.586C66.5464 142.925 53.7761 169.448 53.6897 171.244C53.6032 173.04 55.2363 171.506 52.5796 174.742C50.4189 177.373 52.6467 178.297 51.5401 178.445C48.6221 178.837 53.8018 182.409 50.177 182.079C46.5523 181.75 58.5579 189.805 58.5579 189.805C58.5579 189.805 60.7038 189.696 62.2206 185.079C63.0725 182.486 62.1562 180.751 64.3501 180.703C66.5441 180.654 65.4661 175.475 65.9117 174.775C66.3573 174.075 81.0145 161.907 81.0145 161.907L94.0009 137.713Z" fill="#BD1212"/>
<path d="M74.8045 91.0159C83.8236 80.6223 67.791 108.142 79.7683 118.87C74.8867 122.74 56.9812 121.367 57.993 118.87C59.0047 116.372 62.3212 92.5469 65.8798 91.0159C69.4384 89.4848 74.8045 91.0159 74.8045 91.0159Z" fill="#2F2E41"/>
<path d="M62.5092 221.465C62.7775 220.407 61.7613 219.237 60.2395 218.851C58.7176 218.466 57.2664 219.011 56.9981 220.069C56.7298 221.127 57.746 222.297 59.2679 222.682C60.7897 223.068 62.2409 222.522 62.5092 221.465Z" fill="white"/>
<path d="M52.8569 232.142C52.9671 231.156 52.5004 230.295 51.8144 230.219C51.1284 230.142 50.483 230.879 50.3728 231.864C50.2626 232.85 50.7294 233.711 51.4154 233.787C52.1013 233.864 52.7467 233.127 52.8569 232.142Z" fill="#E6E6E6"/>
<path d="M134.714 344.489C134.97 344.501 135.222 344.434 135.438 344.297C135.654 344.161 135.823 343.961 135.921 343.725C136.02 343.49 136.044 343.23 135.989 342.98C135.935 342.731 135.805 342.504 135.618 342.331L135.532 341.991C135.543 341.964 135.555 341.937 135.566 341.91C135.823 341.303 136.254 340.786 136.805 340.423C137.355 340.06 138.001 339.867 138.66 339.87C139.32 339.872 139.964 340.069 140.512 340.436C141.06 340.803 141.487 341.324 141.739 341.933C142.749 344.363 144.034 346.797 144.351 349.366C144.49 350.502 144.431 351.653 144.177 352.768C146.548 347.599 147.78 341.981 147.788 336.295C147.788 334.868 147.709 333.442 147.55 332.024C147.419 330.862 147.237 329.708 147.004 328.562C145.733 322.344 143.004 316.516 139.041 311.557C137.123 310.511 135.572 308.903 134.597 306.949C134.244 306.247 133.994 305.497 133.856 304.724C134.072 304.752 134.672 301.46 134.508 301.258C134.81 300.8 135.35 300.573 135.679 300.127C137.317 297.908 139.573 298.296 140.751 301.311C143.267 302.58 143.291 304.684 141.748 306.708C140.765 307.996 140.63 309.739 139.768 311.117C139.857 311.231 139.949 311.341 140.038 311.454C141.659 313.537 143.072 315.773 144.256 318.131C143.968 315.49 144.312 312.817 145.259 310.334C146.219 308.02 148.018 306.071 149.603 304.07C150.022 303.533 150.591 303.132 151.238 302.918C151.886 302.703 152.582 302.686 153.239 302.867C153.896 303.048 154.485 303.419 154.931 303.935C155.377 304.45 155.66 305.086 155.744 305.762C155.748 305.792 155.751 305.821 155.754 305.851C155.519 305.983 155.288 306.124 155.063 306.273C154.78 306.462 154.56 306.732 154.433 307.048C154.306 307.364 154.278 307.711 154.351 308.043C154.425 308.375 154.598 308.678 154.846 308.91C155.095 309.143 155.408 309.295 155.744 309.347L155.779 309.352C155.695 310.2 155.547 311.04 155.335 311.865C157.368 319.721 152.98 322.582 146.713 322.71C146.575 322.781 146.44 322.852 146.302 322.919C147.491 326.289 148.238 329.799 148.522 333.361C148.683 335.462 148.673 337.573 148.494 339.673L148.504 339.598C148.958 337.263 150.205 335.156 152.033 333.633C154.749 331.404 158.586 330.583 161.516 328.791C161.827 328.592 162.189 328.485 162.559 328.484C162.929 328.483 163.292 328.588 163.604 328.786C163.917 328.984 164.166 329.268 164.322 329.603C164.479 329.938 164.536 330.311 164.488 330.677L164.476 330.756C164.039 330.933 163.614 331.138 163.202 331.369C162.967 331.501 162.736 331.642 162.511 331.791C162.228 331.98 162.008 332.25 161.882 332.566C161.755 332.882 161.726 333.229 161.8 333.561C161.873 333.893 162.046 334.196 162.294 334.428C162.543 334.661 162.856 334.813 163.193 334.865L163.227 334.87C163.252 334.874 163.273 334.877 163.298 334.881C162.552 336.661 161.504 338.3 160.202 339.726C158.931 346.583 153.471 347.234 147.632 345.237H147.628C146.987 348.019 146.059 350.727 144.858 353.318H134.962C134.927 353.208 134.895 353.094 134.863 352.985C135.779 353.042 136.699 352.987 137.601 352.822C136.867 351.921 136.133 351.014 135.399 350.114C135.382 350.097 135.367 350.079 135.353 350.061C134.98 349.6 134.604 349.143 134.232 348.682C134.212 347.27 134.374 345.86 134.714 344.489Z" fill="#CCCCCC"/>
<path d="M24.0344 353.347C24.0341 353.433 24.0508 353.518 24.0836 353.597C24.1163 353.677 24.1645 353.749 24.2252 353.809C24.2859 353.87 24.3581 353.918 24.4375 353.951C24.5169 353.984 24.602 354 24.6879 354H163.78C163.953 354 164.119 353.931 164.242 353.809C164.364 353.686 164.433 353.52 164.433 353.347C164.433 353.174 164.364 353.008 164.242 352.885C164.119 352.763 163.953 352.694 163.78 352.694H24.6879C24.602 352.694 24.5169 352.711 24.4375 352.743C24.3581 352.776 24.2859 352.824 24.2252 352.885C24.1645 352.945 24.1163 353.017 24.0836 353.097C24.0508 353.176 24.0341 353.261 24.0344 353.347Z" fill="#CCCCCC"/>
</svg>
