<svg width="237" height="152" viewBox="0 0 237 152" fill="none" xmlns="http://www.w3.org/2000/svg">
<g clip-path="url(#clip0_17_907)">
<path d="M221.534 134.302H161.646C159.467 134.3 157.378 133.433 155.837 131.893C154.297 130.352 153.43 128.264 153.427 126.085V31.6351C153.43 29.4566 154.297 27.3681 155.837 25.8277C157.378 24.2873 159.467 23.4208 161.646 23.4183H221.534C223.713 23.4208 225.801 24.2873 227.342 25.8277C228.883 27.3681 229.749 29.4566 229.752 31.6351V126.085C229.749 128.264 228.883 130.352 227.342 131.893C225.801 133.433 223.713 134.3 221.534 134.302Z" fill="#E6E6E6"/>
<path d="M222.527 28.3214H161.533C160.851 28.3223 160.197 28.5935 159.715 29.0757C159.232 29.5579 158.961 30.2117 158.96 30.8936V126.575C158.961 127.257 159.233 127.911 159.715 128.393C160.197 128.875 160.851 129.147 161.533 129.148H222.527C223.209 129.147 223.863 128.876 224.345 128.393C224.827 127.911 225.099 127.257 225.099 126.575V30.8936C225.099 30.2117 224.827 29.5579 224.345 29.0757C223.863 28.5935 223.209 28.3223 222.527 28.3214Z" fill="white"/>
<path d="M163.109 23.4184C163.11 23.2517 163.176 23.092 163.294 22.9741C163.412 22.8563 163.572 22.79 163.738 22.7898H168.013C168.18 22.7898 168.34 22.856 168.458 22.9739C168.576 23.0918 168.642 23.2517 168.642 23.4184C168.642 23.5851 168.576 23.745 168.458 23.8629C168.34 23.9808 168.18 24.047 168.013 24.047H163.738C163.572 24.0468 163.412 23.9805 163.294 23.8626C163.176 23.7448 163.11 23.585 163.109 23.4184Z" fill="#E6E6E6"/>
<path d="M170.151 23.4184C170.151 23.2517 170.217 23.092 170.335 22.9741C170.453 22.8563 170.613 22.79 170.78 22.7898H175.055C175.222 22.7898 175.382 22.856 175.499 22.9739C175.617 23.0918 175.684 23.2517 175.684 23.4184C175.684 23.5851 175.617 23.745 175.499 23.8629C175.382 23.9808 175.222 24.047 175.055 24.047H170.78C170.613 24.0468 170.453 23.9805 170.335 23.8627C170.217 23.7448 170.151 23.585 170.151 23.4184Z" fill="#E6E6E6"/>
<path d="M212.4 23.4184C212.4 23.2517 212.466 23.092 212.584 22.9741C212.702 22.8563 212.862 22.79 213.028 22.7898H217.304C217.47 22.7898 217.63 22.856 217.748 22.9739C217.866 23.0918 217.932 23.2517 217.932 23.4184C217.932 23.5851 217.866 23.745 217.748 23.8629C217.63 23.9808 217.47 24.047 217.304 24.047H213.028C212.862 24.0468 212.702 23.9805 212.584 23.8627C212.466 23.7448 212.4 23.585 212.4 23.4184Z" fill="#E6E6E6"/>
<path d="M200.482 127.176C200.482 127.838 200.469 128.496 200.439 129.148H161.533C160.851 129.147 160.197 128.875 159.715 128.393C159.233 127.911 158.961 127.257 158.96 126.575V78.4152C170.546 80.2867 181.087 86.2214 188.696 95.1561C196.304 104.091 200.482 115.442 200.482 127.176Z" fill="#F2F2F2"/>
<path d="M199.161 52.9098H184.651C183.99 52.9098 183.455 53.445 183.455 54.1051V55.5968C183.455 56.2569 183.99 56.7921 184.651 56.7921H199.161C199.821 56.7921 200.356 56.2569 200.356 55.5968V54.1051C200.356 53.445 199.821 52.9098 199.161 52.9098Z" fill="#BD1212"/>
<path d="M208.383 60.6744H175.429C174.768 60.6744 174.233 61.2096 174.233 61.8698V63.3614C174.233 64.0216 174.768 64.5568 175.429 64.5568H208.383C209.043 64.5568 209.579 64.0216 209.579 63.3614V61.8698C209.579 61.2096 209.043 60.6744 208.383 60.6744Z" fill="#BD1212"/>
<path d="M208.383 68.4391H175.429C174.768 68.4391 174.233 68.9743 174.233 69.6344V71.1261C174.233 71.7862 174.768 72.3214 175.429 72.3214H208.383C209.043 72.3214 209.579 71.7862 209.579 71.1261V69.6344C209.579 68.9743 209.043 68.4391 208.383 68.4391Z" fill="#BD1212"/>
<path d="M202.74 122.609C202.551 122.617 202.364 122.568 202.204 122.466C202.044 122.365 201.92 122.217 201.847 122.043C201.774 121.869 201.756 121.676 201.796 121.491C201.836 121.306 201.933 121.138 202.071 121.01L202.135 120.759C202.126 120.739 202.118 120.718 202.11 120.698C201.919 120.249 201.6 119.866 201.193 119.597C200.785 119.328 200.307 119.185 199.819 119.187C199.331 119.189 198.854 119.335 198.449 119.607C198.043 119.879 197.727 120.264 197.54 120.715C196.793 122.515 195.841 124.318 195.607 126.221C195.504 127.062 195.547 127.915 195.735 128.741C193.98 124.912 193.068 120.751 193.063 116.54C193.062 115.483 193.121 114.427 193.239 113.376C193.336 112.515 193.47 111.66 193.643 110.812C194.584 106.206 196.604 101.89 199.537 98.2168C200.957 97.4423 202.105 96.2512 202.827 94.8042C203.088 94.284 203.273 93.7288 203.376 93.1556C203.215 93.1767 203.053 93.1898 202.893 93.2003C202.843 93.2029 202.79 93.2055 202.74 93.2082L202.721 93.209C202.545 93.2169 202.371 93.1738 202.219 93.0848C202.067 92.9958 201.944 92.8648 201.864 92.7075C201.785 92.5501 201.753 92.3733 201.772 92.1981C201.791 92.023 201.86 91.857 201.971 91.7202C202.04 91.6352 202.109 91.5501 202.178 91.4651C202.283 91.3339 202.391 91.2052 202.496 91.074C202.508 91.0615 202.52 91.0484 202.53 91.0346C202.651 90.885 202.772 90.738 202.893 90.5883C202.672 90.2462 202.376 89.9597 202.026 89.751C200.816 89.0422 199.146 89.5331 198.272 90.6277C197.395 91.7223 197.229 93.258 197.534 94.6257C197.833 95.7894 198.329 96.8937 198.999 97.8912C198.933 97.9752 198.865 98.0566 198.799 98.1406C197.6 99.6832 196.554 101.34 195.677 103.086C195.89 101.13 195.636 99.1502 194.935 97.3111C194.224 95.5971 192.892 94.1535 191.719 92.6717C190.31 90.8919 187.421 91.6687 187.173 93.9249C187.17 93.9467 187.168 93.9686 187.166 93.9904C187.34 94.0887 187.511 94.193 187.677 94.3033C187.887 94.4434 188.049 94.6434 188.143 94.8773C188.237 95.1112 188.258 95.3681 188.204 95.6142C188.149 95.8603 188.022 96.0841 187.838 96.2565C187.654 96.4288 187.422 96.5416 187.173 96.58L187.147 96.5839C187.209 97.2117 187.319 97.8339 187.476 98.4451C187.929 100.151 188.73 101.746 189.828 103.128C190.926 104.51 192.298 105.651 193.858 106.478C193.961 106.53 194.06 106.583 194.163 106.633C193.282 109.128 192.729 111.728 192.519 114.366C192.4 115.922 192.407 117.486 192.54 119.041L192.532 118.986C192.196 117.257 191.273 115.696 189.92 114.568C187.91 112.917 185.069 112.309 182.9 110.982C182.67 110.834 182.402 110.755 182.128 110.754C181.854 110.753 181.586 110.831 181.354 110.978C181.123 111.125 180.939 111.335 180.823 111.583C180.707 111.831 180.665 112.107 180.701 112.379C180.704 112.398 180.707 112.417 180.71 112.437C181.033 112.568 181.348 112.72 181.652 112.891C181.826 112.989 181.997 113.093 182.164 113.204C182.373 113.344 182.536 113.544 182.63 113.778C182.724 114.012 182.745 114.268 182.69 114.514C182.636 114.761 182.508 114.984 182.324 115.157C182.14 115.329 181.909 115.442 181.659 115.48L181.634 115.484C181.615 115.487 181.6 115.49 181.581 115.492C182.134 116.811 182.909 118.025 183.873 119.081C185.065 120.359 186.504 121.38 188.104 122.082C189.704 122.784 191.431 123.151 193.178 123.163H193.181C193.655 125.223 194.342 127.229 195.231 129.148H202.556C202.583 129.066 202.606 128.982 202.63 128.901C201.952 128.944 201.271 128.903 200.603 128.78C201.147 128.113 201.69 127.441 202.234 126.775C202.246 126.762 202.257 126.749 202.268 126.735C202.543 126.394 202.822 126.055 203.097 125.714L203.097 125.714C203.112 124.668 202.992 123.624 202.74 122.609L202.74 122.609ZM194.352 106.11L194.356 106.105L194.352 106.115V106.11ZM192.729 120.734L192.666 120.593C192.669 120.49 192.669 120.388 192.666 120.283C192.666 120.254 192.661 120.225 192.661 120.196C192.685 120.377 192.706 120.558 192.732 120.74L192.729 120.734Z" fill="#CCCCCC"/>
<path d="M219.478 36.7687H164.582C164.463 36.7661 164.35 36.7171 164.267 36.6322C164.184 36.5473 164.137 36.4332 164.137 36.3145C164.137 36.1957 164.184 36.0817 164.267 35.9968C164.35 35.9119 164.463 35.8628 164.582 35.8602H219.478C219.597 35.8628 219.71 35.9119 219.793 35.9968C219.876 36.0817 219.922 36.1957 219.922 36.3145C219.922 36.4332 219.876 36.5473 219.793 36.6322C219.71 36.7171 219.597 36.7661 219.478 36.7687Z" fill="#CACACA"/>
<path d="M167.51 34.5467C168.248 34.5467 168.846 33.9356 168.846 33.1819C168.846 32.4281 168.248 31.817 167.51 31.817C166.773 31.817 166.175 32.4281 166.175 33.1819C166.175 33.9356 166.773 34.5467 167.51 34.5467Z" fill="#3F3D56"/>
<path d="M172.123 34.5467C172.861 34.5467 173.459 33.9356 173.459 33.1819C173.459 32.4281 172.861 31.817 172.123 31.817C171.386 31.817 170.788 32.4281 170.788 33.1819C170.788 33.9356 171.386 34.5467 172.123 34.5467Z" fill="#3F3D56"/>
<path d="M176.736 34.5467C177.474 34.5467 178.072 33.9356 178.072 33.1819C178.072 32.4281 177.474 31.817 176.736 31.817C175.999 31.817 175.401 32.4281 175.401 33.1819C175.401 33.9356 175.999 34.5467 176.736 34.5467Z" fill="#3F3D56"/>
<path d="M217.332 32.3444H214.344C214.285 32.3455 214.228 32.3699 214.187 32.4122C214.145 32.4545 214.122 32.5113 214.122 32.5706C214.122 32.6298 214.145 32.6867 214.187 32.729C214.228 32.7713 214.285 32.7956 214.344 32.7968H217.332C217.392 32.7956 217.448 32.7713 217.489 32.729C217.531 32.6867 217.554 32.6298 217.554 32.5706C217.554 32.5113 217.531 32.4545 217.489 32.4122C217.448 32.3699 217.392 32.3455 217.332 32.3444Z" fill="#3F3D56"/>
<path d="M217.332 33.1936H214.344C214.285 33.1948 214.228 33.2191 214.187 33.2614C214.145 33.3037 214.122 33.3606 214.122 33.4198C214.122 33.4791 214.145 33.5359 214.187 33.5782C214.228 33.6205 214.285 33.6449 214.344 33.6461H217.332C217.392 33.6449 217.448 33.6205 217.489 33.5782C217.531 33.5359 217.554 33.4791 217.554 33.4198C217.554 33.3606 217.531 33.3037 217.489 33.2614C217.448 33.2191 217.392 33.1948 217.332 33.1936Z" fill="#3F3D56"/>
<path d="M217.332 34.0416H214.344C214.285 34.0428 214.228 34.0671 214.187 34.1094C214.145 34.1517 214.122 34.2086 214.122 34.2679C214.122 34.3271 214.145 34.384 214.187 34.4263C214.228 34.4686 214.285 34.4929 214.344 34.4941H217.332C217.392 34.4929 217.448 34.4686 217.489 34.4263C217.531 34.384 217.554 34.3271 217.554 34.2679C217.554 34.2086 217.531 34.1517 217.489 34.1094C217.448 34.0671 217.392 34.0428 217.332 34.0416Z" fill="#3F3D56"/>
<path d="M128.263 78.4512H96.4356C95.9853 78.4519 95.5538 78.6313 95.2358 78.95C94.9179 79.2687 94.7395 79.7007 94.74 80.1509V130.42H129.963V80.1509C129.963 79.9276 129.919 79.7065 129.834 79.5003C129.749 79.294 129.623 79.1066 129.465 78.9487C129.308 78.7909 129.12 78.6657 128.914 78.5803C128.708 78.4949 128.486 78.4511 128.263 78.4512ZM112.456 107.014C111.461 107.009 110.508 106.612 109.804 105.908C109.1 105.204 108.703 104.251 108.698 103.256V97.4579C108.699 96.4618 109.095 95.5069 109.8 94.8029C110.505 94.0989 111.46 93.7034 112.456 93.7034C113.453 93.7034 114.408 94.0989 115.113 94.8029C115.818 95.5069 116.214 96.4618 116.215 97.4579V103.256C116.21 104.251 115.813 105.204 115.109 105.908C114.405 106.612 113.452 107.009 112.456 107.014Z" fill="#E6E6E6"/>
<path d="M94.6307 128.812V133.662C94.6313 133.914 94.7313 134.154 94.9091 134.332C95.0868 134.51 95.3277 134.61 95.5791 134.61H129.124C129.375 134.609 129.616 134.509 129.793 134.331C129.971 134.154 130.071 133.913 130.072 133.662V128.812L94.6307 128.812Z" fill="#CCCCCC"/>
<path d="M180.967 0H44.9163C43.7474 0.00185924 42.6269 0.466939 41.8004 1.29332C40.9739 2.1197 40.5087 3.23998 40.5068 4.40867V96.2001C40.508 97.369 40.9729 98.4897 41.7996 99.3163C42.6263 100.143 43.7472 100.608 44.9163 100.609H180.967C182.136 100.608 183.257 100.143 184.083 99.3163C184.91 98.4897 185.375 97.369 185.376 96.2001V4.40867C185.374 3.23998 184.909 2.1197 184.083 1.29332C183.256 0.466939 182.136 0.00185852 180.967 0Z" fill="#E6E6E6"/>
<path d="M179.831 3.18433H46.053C45.4271 3.18569 44.8274 3.4352 44.3853 3.87813C43.9432 4.32106 43.6949 4.92124 43.6948 5.54699V95.0633C43.6959 95.6882 43.9447 96.2873 44.3867 96.7293C44.8287 97.1712 45.4279 97.4199 46.053 97.421H179.831C180.456 97.4199 181.055 97.1712 181.497 96.7293C181.939 96.2873 182.188 95.6882 182.189 95.0633V5.54699C182.189 4.92124 181.941 4.32106 181.499 3.87813C181.057 3.4352 180.457 3.18569 179.831 3.18433Z" fill="white"/>
<path d="M182.189 5.54699V95.0633C182.188 95.6882 181.939 96.2873 181.497 96.7293C181.055 97.1712 180.456 97.4199 179.831 97.421H132.658C127.439 92.5822 123.158 86.8227 120.029 80.4314C119.823 80.0197 119.627 79.603 119.44 79.1815C116.589 72.9954 114.863 66.3511 114.342 59.5597C114.307 59.143 114.278 58.7264 114.258 58.3048C114.195 57.2264 114.165 56.1333 114.165 55.0353C114.156 47.7328 115.535 40.4951 118.229 33.7077C118.391 33.2861 118.563 32.8695 118.739 32.4528C124.162 19.7145 133.96 9.33379 146.366 3.18433H179.831C180.457 3.18569 181.057 3.4352 181.499 3.87813C181.941 4.32106 182.189 4.92124 182.189 5.54699Z" fill="#1298BD"/>
<path d="M173.106 15.5176H47.9306C47.8005 15.5148 47.6765 15.4612 47.5855 15.3682C47.4944 15.2751 47.4434 15.1501 47.4434 15.0199C47.4434 14.8897 47.4944 14.7647 47.5855 14.6717C47.6765 14.5786 47.8005 14.525 47.9306 14.5222H173.106C173.236 14.525 173.36 14.5786 173.451 14.6717C173.543 14.7647 173.594 14.8897 173.594 15.0199C173.594 15.1501 173.543 15.2751 173.451 15.3682C173.36 15.4612 173.236 15.5148 173.106 15.5176Z" fill="#CACACA"/>
<path d="M56.4516 11.9811C58.0627 11.9811 59.3689 10.6461 59.3689 8.99935C59.3689 7.35256 58.0627 6.01758 56.4516 6.01758C54.8404 6.01758 53.5343 7.35256 53.5343 8.99935C53.5343 10.6461 54.8404 11.9811 56.4516 11.9811Z" fill="#3F3D56"/>
<path d="M66.5293 11.9811C68.1405 11.9811 69.4466 10.6461 69.4466 8.99935C69.4466 7.35256 68.1405 6.01758 66.5293 6.01758C64.9182 6.01758 63.6121 7.35256 63.6121 8.99935C63.6121 10.6461 64.9182 11.9811 66.5293 11.9811Z" fill="#3F3D56"/>
<path d="M76.6072 11.9811C78.2184 11.9811 79.5245 10.6461 79.5245 8.99935C79.5245 7.35256 78.2184 6.01758 76.6072 6.01758C74.9961 6.01758 73.6899 7.35256 73.6899 8.99935C73.6899 10.6461 74.9961 11.9811 76.6072 11.9811Z" fill="#3F3D56"/>
<path d="M167.038 6.75659H159.88C159.738 6.7594 159.603 6.81773 159.503 6.91906C159.404 7.02039 159.348 7.15664 159.348 7.29855C159.348 7.44045 159.404 7.5767 159.503 7.67803C159.603 7.77936 159.738 7.83769 159.88 7.8405H167.038C167.18 7.83769 167.316 7.77936 167.415 7.67803C167.514 7.5767 167.57 7.44045 167.57 7.29855C167.57 7.15664 167.514 7.02039 167.415 6.91906C167.316 6.81773 167.18 6.7594 167.038 6.75659Z" fill="#3F3D56"/>
<path d="M167.038 8.79089H159.88C159.738 8.7937 159.603 8.85203 159.503 8.95337C159.404 9.0547 159.348 9.19094 159.348 9.33285C159.348 9.47475 159.404 9.611 159.503 9.71233C159.603 9.81366 159.738 9.87199 159.88 9.8748H167.038C167.18 9.87199 167.316 9.81366 167.415 9.71233C167.514 9.611 167.57 9.47475 167.57 9.33285C167.57 9.19094 167.514 9.0547 167.415 8.95337C167.316 8.85203 167.18 8.7937 167.038 8.79089Z" fill="#3F3D56"/>
<path d="M167.038 10.8226H159.88C159.738 10.8254 159.603 10.8838 159.503 10.9851C159.404 11.0864 159.348 11.2227 159.348 11.3646C159.348 11.5065 159.404 11.6427 159.503 11.7441C159.603 11.8454 159.738 11.9037 159.88 11.9065H167.038C167.18 11.9037 167.316 11.8454 167.415 11.7441C167.514 11.6427 167.57 11.5065 167.57 11.3646C167.57 11.2227 167.514 11.0864 167.415 10.9851C167.316 10.8838 167.18 10.8254 167.038 10.8226Z" fill="#3F3D56"/>
<path d="M86.2579 44.594H68.7532C68.0929 44.594 67.5576 45.1292 67.5576 45.7893V47.6524C67.5576 48.3126 68.0929 48.8477 68.7532 48.8477H86.2579C86.9182 48.8477 87.4534 48.3126 87.4534 47.6524V45.7893C87.4534 45.1292 86.9182 44.594 86.2579 44.594Z" fill="#BD1212"/>
<path d="M96.3623 53.1014H58.6488C57.9885 53.1014 57.4532 53.6366 57.4532 54.2968V56.1598C57.4532 56.82 57.9885 57.3552 58.6488 57.3552H96.3623C97.0226 57.3552 97.5579 56.82 97.5579 56.1598V54.2968C97.5579 53.6366 97.0226 53.1014 96.3623 53.1014Z" fill="#BD1212"/>
<path d="M96.3623 61.6089H58.6488C57.9885 61.6089 57.4532 62.1441 57.4532 62.8042V64.6673C57.4532 65.3275 57.9885 65.8626 58.6488 65.8626H96.3623C97.0226 65.8626 97.5579 65.3275 97.5579 64.6673V62.8042C97.5579 62.1441 97.0226 61.6089 96.3623 61.6089Z" fill="#BD1212"/>
<path d="M60.7266 92.2888C60.7295 94.041 60.4173 95.7793 59.8049 97.421H46.053C45.4279 97.4199 44.8287 97.1711 44.3867 96.7292C43.9447 96.2873 43.6959 95.6882 43.6948 95.0632V77.7698C44.4632 77.6455 45.2403 77.5832 46.0187 77.5835C47.9502 77.5834 49.8628 77.9637 51.6473 78.7026C53.4318 79.4416 55.0532 80.5248 56.419 81.8903C57.7848 83.2559 58.8681 84.877 59.6072 86.6612C60.3463 88.4454 60.7267 90.3577 60.7266 92.2888Z" fill="#1298BD"/>
<path opacity="0.2" d="M182.312 33.7077V32.4529H161.275V17.9093H160.024V32.4529H135.913V17.9093H134.663V32.4529H118.739C118.563 32.8695 118.391 33.2862 118.23 33.7077H134.663V58.3048H114.258C114.278 58.7264 114.307 59.1431 114.342 59.5597H134.663V79.1816H119.441C119.627 79.6031 119.823 80.0197 120.029 80.4315H134.663V96.9259H135.913V80.4315H160.024V96.9259H161.275V80.4315H182.312V79.1815H161.275V79.1815C161.275 76.6047 161.782 74.0532 162.769 71.6726C163.755 69.2919 165.2 67.1288 167.023 65.3068C168.845 63.4847 171.009 62.0394 173.39 61.0533C175.771 60.0672 178.323 59.5597 180.9 59.5597H182.312V58.3048H161.275V33.7077H182.312ZM160.024 79.1815H135.913V59.5597H160.024V79.1815ZM160.024 58.3048H135.913V57.8146C135.913 51.4211 138.454 45.2894 142.975 40.7685C147.497 36.2475 153.63 33.7077 160.024 33.7077H160.024V58.3048Z" fill="black"/>
<path d="M165.374 88.1341C165.105 88.1464 164.84 88.076 164.613 87.9323C164.386 87.7886 164.208 87.5787 164.105 87.3309C164.001 87.0831 163.976 86.8094 164.033 86.547C164.09 86.2846 164.227 86.046 164.424 85.8637C164.457 85.7324 164.481 85.6382 164.514 85.5069C164.502 85.4783 164.49 85.4497 164.478 85.4212C163.272 82.5457 159.184 82.5655 157.988 85.4453C156.927 88.0013 155.576 90.5617 155.243 93.2642C155.096 94.4588 155.158 95.6697 155.426 96.8432C152.933 91.4059 151.638 85.4962 151.63 79.5148C151.629 78.0139 151.713 76.5141 151.88 75.0224C152.017 73.7996 152.209 72.5855 152.454 71.38C153.79 64.8395 156.659 58.7092 160.825 53.4925C162.841 52.3925 164.472 50.701 165.497 48.6459C165.868 47.9071 166.131 47.1185 166.276 46.3046C166.049 46.3344 165.818 46.3531 165.59 46.368C165.519 46.3717 165.445 46.3754 165.374 46.3792L165.347 46.3804C165.097 46.3916 164.849 46.3303 164.633 46.2039C164.417 46.0776 164.243 45.8915 164.13 45.6681C164.017 45.4447 163.972 45.1935 163.998 44.9447C164.025 44.696 164.123 44.4603 164.281 44.266C164.379 44.1452 164.478 44.0244 164.576 43.9037C164.725 43.7173 164.878 43.5346 165.027 43.3482C165.044 43.3305 165.061 43.3118 165.076 43.2922C165.247 43.0797 165.419 42.871 165.59 42.6585C165.277 42.1726 164.856 41.7656 164.36 41.4692C162.641 40.4626 160.269 41.1598 159.028 42.7144C157.782 44.269 157.547 46.45 157.98 48.3923C158.349 50.0551 159.154 51.5799 160.06 53.0301C159.967 53.1494 159.87 53.265 159.777 53.3843C158.073 55.5752 156.588 57.9277 155.343 60.4082C155.645 57.6293 155.284 54.8182 154.288 52.2062C153.279 49.772 151.387 47.7218 149.721 45.6174C147.721 43.0896 143.617 44.1928 143.265 47.3971C143.261 47.4281 143.258 47.4591 143.255 47.4901C143.502 47.6297 143.744 47.7778 143.981 47.9345C144.279 48.1334 144.51 48.4176 144.643 48.7498C144.777 49.082 144.807 49.4467 144.729 49.7962C144.652 50.1457 144.471 50.4637 144.209 50.7085C143.948 50.9532 143.619 51.1134 143.265 51.1679L143.229 51.1735C143.317 52.0652 143.473 52.9488 143.695 53.8168C144.338 56.24 145.476 58.5041 147.036 60.4672C148.596 62.4303 150.544 64.05 152.759 65.2249C152.905 65.2994 153.047 65.374 153.192 65.4449C151.941 68.9892 151.156 72.6812 150.858 76.4279C150.689 78.6384 150.699 80.8589 150.888 83.0677L150.876 82.9894C150.399 80.5333 149.089 78.317 147.166 76.715C144.311 74.37 140.277 73.5065 137.197 71.6215C135.714 70.7142 133.814 71.8867 134.073 73.6055C134.077 73.6329 134.081 73.6603 134.086 73.6878C134.545 73.8747 134.992 74.0901 135.424 74.3327C135.672 74.4723 135.914 74.6204 136.151 74.7771C136.449 74.976 136.679 75.2601 136.813 75.5923C136.946 75.9245 136.976 76.2893 136.899 76.6388C136.821 76.9883 136.64 77.3063 136.379 77.5511C136.118 77.7958 135.788 77.956 135.435 78.0105L135.398 78.0161C135.372 78.0198 135.35 78.0236 135.324 78.0273C136.108 79.9003 137.209 81.6242 138.579 83.1237C140.271 84.9387 142.315 86.3891 144.588 87.386C146.86 88.3829 149.312 88.9052 151.794 88.9209H151.797C152.471 91.8475 153.447 94.6962 154.71 97.4211H165.113C165.15 97.3055 165.184 97.1862 165.217 97.0706C164.254 97.1311 163.288 97.0735 162.339 96.8991C163.111 95.9522 163.882 94.9977 164.654 94.0508C164.671 94.0331 164.688 94.0144 164.703 93.9949C165.094 93.5102 165.49 93.0293 165.881 92.5447C165.902 91.0591 165.731 89.5761 165.374 88.1341ZM153.46 64.7029L153.466 64.6956L153.46 64.7104V64.7029ZM151.156 85.4724L151.067 85.2711C151.07 85.1257 151.07 84.9803 151.067 84.8312C151.067 84.7901 151.059 84.7491 151.059 84.7081C151.093 84.9654 151.123 85.2226 151.16 85.4799L151.156 85.4724Z" fill="#2F2E41"/>
<path d="M72.7359 63.807V49.8277C72.7359 47.6818 71.8834 45.6239 70.3658 44.1066C68.8482 42.5892 66.7899 41.7368 64.6437 41.7368H35.0213C32.8751 41.7368 30.8168 42.5892 29.2992 44.1066C27.7817 45.6239 26.9291 47.6819 26.9291 49.8277V126.52C26.9291 128.665 27.7817 130.723 29.2992 132.241C30.8168 133.758 32.8751 134.61 35.0213 134.61H64.6437C65.7064 134.61 66.7587 134.401 67.7405 133.995C68.7223 133.588 69.6143 132.992 70.3658 132.241C71.1172 131.489 71.7133 130.597 72.12 129.616C72.5266 128.634 72.7359 127.582 72.7359 126.52V73.7578C72.8713 73.7578 73.0011 73.704 73.0968 73.6083C73.1926 73.5126 73.2463 73.3828 73.2463 73.2475V64.3173C73.2463 64.182 73.1926 64.0522 73.0968 63.9565C73.0011 63.8608 72.8713 63.807 72.7359 63.807Z" fill="#E6E6E6"/>
<path d="M71.0137 49.8832V126.464C71.0139 128.055 70.3863 129.582 69.2672 130.712C68.1482 131.843 66.6281 132.487 65.0372 132.503C65.0153 132.505 64.9932 132.506 64.9711 132.506H35.2046C33.602 132.506 32.0652 131.869 30.932 130.736C29.7988 129.603 29.1621 128.067 29.162 126.464V49.8832C29.1621 48.2809 29.7988 46.7443 30.932 45.6114C32.0652 44.4784 33.602 43.8418 35.2046 43.8417H38.8169C38.6393 44.2777 38.5716 44.7507 38.6198 45.219C38.668 45.6873 38.8305 46.1366 39.0932 46.5273C39.3558 46.9181 39.7105 47.2383 40.1259 47.4598C40.5414 47.6814 41.005 47.7974 41.4758 47.7977H58.4463C58.9168 47.7964 59.3797 47.6797 59.7945 47.4579C60.2094 47.236 60.5634 46.9158 60.8256 46.5253C61.0878 46.1347 61.2502 45.6858 61.2985 45.218C61.3467 44.7501 61.2795 44.2775 61.1025 43.8417H64.9711C66.5736 43.8418 68.1105 44.4784 69.2437 45.6114C70.3769 46.7443 71.0135 48.2809 71.0137 49.8832Z" fill="white"/>
<path d="M65.1116 130.142C65.1116 130.936 65.0868 131.723 65.0372 132.503C65.0152 132.505 64.9932 132.506 64.9711 132.506H35.2046C33.602 132.506 32.0651 131.869 30.932 130.736C29.7988 129.603 29.1621 128.067 29.162 126.464V92.3364C38.8604 92.8253 48.0001 97.0219 54.6911 104.058C61.3821 111.095 65.1127 120.433 65.1116 130.142Z" fill="#F2F2F2"/>
<path d="M27.0928 71.6277C26.9102 71.6275 26.7351 71.5549 26.6059 71.4257C26.4768 71.2966 26.4041 71.1216 26.4039 70.939V66.2556C26.4039 66.073 26.4765 65.8978 26.6057 65.7686C26.7349 65.6395 26.9101 65.5669 27.0928 65.5669C27.2755 65.5669 27.4507 65.6395 27.5799 65.7686C27.7091 65.8978 27.7816 66.073 27.7816 66.2556V70.939C27.7814 71.1216 27.7088 71.2966 27.5796 71.4257C27.4505 71.5549 27.2754 71.6275 27.0928 71.6277Z" fill="#E6E6E6"/>
<path d="M53.7427 67.8882H46.433C45.7727 67.8882 45.2374 68.4234 45.2374 69.0835V70.9466C45.2374 71.6068 45.7727 72.1419 46.433 72.1419H53.7427C54.403 72.1419 54.9383 71.6068 54.9383 70.9466V69.0835C54.9383 68.4234 54.403 67.8882 53.7427 67.8882Z" fill="#BD1212"/>
<path d="M63.8472 76.3956H36.3286C35.6683 76.3956 35.1331 76.9308 35.1331 77.591V79.454C35.1331 80.1142 35.6683 80.6494 36.3286 80.6494H63.8472C64.5075 80.6494 65.0427 80.1142 65.0427 79.454V77.591C65.0427 76.9308 64.5075 76.3956 63.8472 76.3956Z" fill="#BD1212"/>
<path d="M63.8472 84.9032H36.3286C35.6683 84.9032 35.1331 85.4384 35.1331 86.0985V87.9616C35.1331 88.6218 35.6683 89.1569 36.3286 89.1569H63.8472C64.5075 89.1569 65.0427 88.6218 65.0427 87.9616V86.0985C65.0427 85.4384 64.5075 84.9032 63.8472 84.9032Z" fill="#BD1212"/>
<path d="M57.2259 128.148C57.0999 128.154 56.9753 128.121 56.8688 128.053C56.7622 127.986 56.679 127.887 56.6304 127.771C56.5818 127.655 56.5701 127.526 56.5969 127.403C56.6237 127.28 56.6877 127.168 56.7803 127.082L56.8224 126.915C56.8169 126.902 56.8113 126.888 56.8057 126.875C56.6788 126.575 56.4662 126.32 56.1946 126.141C55.9231 125.961 55.6046 125.866 55.2792 125.868C54.9538 125.869 54.636 125.966 54.3658 126.147C54.0955 126.329 53.8849 126.586 53.7602 126.886C53.2621 128.086 52.628 129.287 52.4718 130.555C52.4031 131.116 52.4321 131.684 52.5576 132.235C51.3877 129.683 50.7802 126.91 50.7763 124.103C50.776 123.399 50.8152 122.695 50.8935 121.995C50.9583 121.421 51.0481 120.851 51.163 120.286C51.79 117.216 53.1363 114.34 55.0913 111.892C56.0374 111.375 56.8027 110.582 57.2837 109.617C57.458 109.271 57.5812 108.901 57.6495 108.519C57.5427 108.533 57.4342 108.541 57.3275 108.548C57.2942 108.55 57.2593 108.552 57.226 108.554L57.2135 108.554C57.0962 108.559 56.9798 108.531 56.8785 108.471C56.7771 108.412 56.6951 108.325 56.6422 108.22C56.5894 108.115 56.568 107.997 56.5805 107.88C56.5931 107.764 56.6392 107.653 56.7132 107.562C56.7593 107.505 56.8054 107.449 56.8515 107.392C56.9215 107.304 56.9933 107.219 57.0633 107.131C57.0713 107.123 57.0789 107.114 57.086 107.105C57.1665 107.005 57.247 106.907 57.3275 106.808C57.1806 106.58 56.983 106.389 56.7501 106.25C55.9434 105.777 54.8305 106.104 54.2478 106.834C53.6634 107.563 53.5532 108.587 53.7562 109.498C53.9558 110.274 54.2859 111.01 54.7326 111.675C54.6888 111.731 54.6433 111.785 54.5996 111.841C53.7999 112.869 53.1029 113.973 52.5187 115.137C52.6607 113.833 52.4912 112.514 52.0239 111.288C51.5503 110.146 50.6625 109.184 49.8808 108.196C49.6741 107.931 49.3933 107.733 49.074 107.627C48.7547 107.521 48.4112 107.513 48.0869 107.602C47.7626 107.691 47.4721 107.875 47.2521 108.129C47.0321 108.384 46.8925 108.698 46.8509 109.031C46.8493 109.046 46.8478 109.06 46.8462 109.075C46.9623 109.14 47.076 109.21 47.1872 109.284C47.3269 109.377 47.4352 109.51 47.4978 109.666C47.5604 109.822 47.5745 109.993 47.5381 110.157C47.5018 110.321 47.4167 110.47 47.2941 110.585C47.1715 110.7 47.017 110.775 46.851 110.801L46.834 110.803C46.8754 111.222 46.9485 111.637 47.0527 112.044C47.3548 113.181 47.8885 114.243 48.6205 115.165C49.3525 116.086 50.2669 116.846 51.3064 117.397C51.3747 117.432 51.4412 117.467 51.5094 117.501C50.9224 119.164 50.5542 120.896 50.4141 122.655C50.3347 123.692 50.3394 124.734 50.4281 125.77L50.4228 125.734C50.1988 124.581 49.5839 123.541 48.6818 122.789C47.3419 121.689 45.449 121.284 44.0036 120.399C43.8499 120.3 43.6713 120.248 43.4888 120.247C43.3062 120.247 43.1273 120.299 42.9733 120.397C42.8192 120.494 42.6963 120.634 42.6191 120.8C42.5419 120.965 42.5136 121.149 42.5376 121.33L42.5435 121.369C42.759 121.456 42.9688 121.557 43.1717 121.671C43.2878 121.737 43.4014 121.806 43.5126 121.88C43.6524 121.973 43.7606 122.107 43.8232 122.262C43.8858 122.418 43.8999 122.589 43.8636 122.753C43.8272 122.918 43.7422 123.067 43.6196 123.182C43.4969 123.296 43.3425 123.372 43.1764 123.397L43.1594 123.4C43.1472 123.402 43.1367 123.403 43.1244 123.405C43.4926 124.284 44.0093 125.093 44.652 125.797C45.4459 126.648 46.4054 127.329 47.4718 127.797C48.5381 128.265 49.6888 128.51 50.8532 128.517H50.855C51.1711 129.89 51.6291 131.227 52.2216 132.506H57.1035C57.121 132.452 57.1368 132.396 57.1525 132.341C56.7006 132.37 56.247 132.343 55.8017 132.261C56.1639 131.817 56.5261 131.369 56.8883 130.924C56.8964 130.916 56.904 130.907 56.911 130.898C57.0948 130.671 57.2802 130.445 57.464 130.218L57.4641 130.217C57.4739 129.52 57.3938 128.825 57.226 128.148L57.2259 128.148ZM51.6354 117.152L51.638 117.149L51.6354 117.156V117.152ZM50.554 126.899L50.512 126.804C50.5138 126.736 50.5138 126.668 50.512 126.598C50.512 126.579 50.5086 126.559 50.5086 126.54C50.5243 126.661 50.5383 126.782 50.5558 126.902L50.554 126.899Z" fill="#CCCCCC"/>
<path d="M26.955 62.5364C26.7723 62.5362 26.5972 62.4636 26.4681 62.3344C26.339 62.2053 26.2663 62.0303 26.2661 61.8477V57.1643C26.2661 56.9817 26.3387 56.8065 26.4679 56.6773C26.5971 56.5481 26.7723 56.4756 26.955 56.4756C27.1377 56.4756 27.3129 56.5481 27.442 56.6773C27.5712 56.8065 27.6438 56.9817 27.6438 57.1643V61.8477C27.6436 62.0303 27.571 62.2053 27.4418 62.3344C27.3127 62.4636 27.1376 62.5362 26.955 62.5364Z" fill="#E6E6E6"/>
<path d="M45.2783 44.6295C45.2785 44.4469 45.3512 44.2719 45.4803 44.1428C45.6095 44.0136 45.7845 43.941 45.9672 43.9408H50.6513C50.834 43.9408 51.0092 44.0134 51.1384 44.1425C51.2676 44.2717 51.3402 44.4469 51.3402 44.6295C51.3402 44.8122 51.2676 44.9874 51.1384 45.1165C51.0092 45.2457 50.834 45.3183 50.6513 45.3183H45.9672C45.7845 45.318 45.6095 45.2454 45.4803 45.1163C45.3512 44.9872 45.2785 44.8121 45.2783 44.6295Z" fill="white"/>
<path d="M27.0928 79.617C26.9102 79.6167 26.7351 79.5441 26.6059 79.415C26.4768 79.2859 26.4041 79.1108 26.4039 78.9282V74.2449C26.4039 74.0622 26.4765 73.887 26.6057 73.7579C26.7349 73.6287 26.9101 73.5562 27.0928 73.5562C27.2755 73.5562 27.4507 73.6287 27.5799 73.7579C27.7091 73.887 27.7816 74.0622 27.7816 74.2449V78.9282C27.7814 79.1108 27.7088 79.2859 27.5796 79.415C27.4505 79.5441 27.2754 79.6168 27.0928 79.617Z" fill="#E6E6E6"/>
<path d="M53.2689 45.3183C53.6494 45.3183 53.9578 45.0099 53.9578 44.6295C53.9578 44.2492 53.6494 43.9408 53.2689 43.9408C52.8885 43.9408 52.5801 44.2492 52.5801 44.6295C52.5801 45.0099 52.8885 45.3183 53.2689 45.3183Z" fill="white"/>
<path d="M236.672 134.609L0.328108 134.693C0.24126 134.693 0.158058 134.658 0.0967359 134.597C0.0354141 134.535 0.000976562 134.452 0.000976562 134.365C0.000976562 134.278 0.0354141 134.195 0.0967359 134.134C0.158058 134.072 0.24126 134.038 0.328108 134.037L236.672 133.953C236.759 133.953 236.842 133.987 236.904 134.049C236.965 134.11 237 134.194 237 134.281C237 134.368 236.965 134.451 236.904 134.513C236.842 134.574 236.759 134.609 236.672 134.609Z" fill="#CACACA"/>
<path d="M101.061 62.2904L99.8173 62.5567C99.8092 62.0368 99.7444 61.5193 99.6241 61.0134C99.511 61.6329 99.2728 62.2229 98.9241 62.7473L91.7942 64.2697L84.9489 57.047C84.9384 53.4356 86.9442 50.6912 90.5405 50.6912C90.7573 50.6912 90.9819 50.7016 91.2091 50.7225C93.1522 50.3974 95.1456 50.8387 96.7697 51.9536C98.3938 53.0684 99.522 54.7699 99.9166 56.6997C102.466 59.2091 101.541 60.6844 101.061 62.2904Z" fill="#2F2E41"/>
<path d="M104.566 146.757H107.152L108.382 136.783L104.565 136.783L104.566 146.757Z" fill="#FFB6B6"/>
<path d="M103.924 145.482L108.013 145.238V146.989L111.9 149.673C112.092 149.806 112.236 149.996 112.312 150.217C112.388 150.437 112.392 150.676 112.323 150.899C112.253 151.122 112.114 151.316 111.926 151.454C111.739 151.593 111.511 151.667 111.278 151.667H106.411L105.572 149.935L105.244 151.667H103.409L103.924 145.482Z" fill="#2F2E41"/>
<path d="M74.2664 143.943L76.5159 145.219L82.5088 137.151L79.1889 135.268L74.2664 143.943Z" fill="#FFB6B6"/>
<path d="M74.3382 142.517L78.0145 144.322L77.15 145.845L79.2059 150.097C79.3075 150.307 79.3393 150.544 79.2966 150.773C79.2539 151.003 79.139 151.213 78.9687 151.372C78.7984 151.531 78.5816 151.632 78.3499 151.66C78.1182 151.687 77.8838 151.64 77.6809 151.525L73.4475 149.123L73.5729 147.203L72.4329 148.548L70.8368 147.642L74.3382 142.517Z" fill="#2F2E41"/>
<path d="M114.126 64.0377C113.794 64.0857 113.477 64.2057 113.197 64.3893C112.917 64.5729 112.681 64.8157 112.505 65.1005C112.329 65.3853 112.218 65.7052 112.179 66.0377C112.14 66.3703 112.174 66.7073 112.279 67.025L108.322 70.4499L109.817 73.3621L115.338 68.4471C115.86 68.2347 116.286 67.8381 116.536 67.3326C116.785 66.827 116.84 66.2476 116.691 65.7041C116.541 65.1605 116.198 64.6907 115.725 64.3836C115.252 64.0765 114.683 63.9534 114.126 64.0377H114.126Z" fill="#FFB6B6"/>
<path d="M110.14 75.815C108.82 77.8141 105.861 79.7447 101.47 81.4563C101.228 81.5534 100.968 81.5991 100.708 81.5906C100.447 81.582 100.191 81.5195 99.9553 81.4068C98.2982 80.6527 97.2361 77.8497 97.1364 77.5778L93.927 73.2491C93.87 73.186 92.3692 71.483 92.5409 69.8088C92.5796 69.458 92.6937 69.1196 92.8755 68.8171C93.0574 68.5146 93.3025 68.255 93.5942 68.0561C96.0237 66.2554 101.469 72.5095 102.175 73.341L105.729 71.1762L108.318 70.0212L110.408 67.4781L113.352 70.4867L110.705 74.697C110.563 75.0915 110.374 75.4671 110.14 75.815Z" fill="#2F2E41"/>
<path d="M100.91 83.4847C100.91 83.4847 108.515 95.5955 107.137 96.973C105.759 98.3504 103.615 98.7122 103.615 98.7122L98.8707 92.5651L100.91 83.4847Z" fill="#2F2E41"/>
<path d="M94.1865 66.9445L97.7706 69.3685C99.4364 70.4952 100.689 72.1343 101.339 74.0373C101.989 75.9402 102.001 78.0032 101.372 79.9133L100.363 82.9797L94.1865 66.9445Z" fill="#2F2E41"/>
<path d="M87.8491 100.003L87.37 101.672L85.7349 121.794L77.5663 137.015L81.4649 139.799L92.6041 125.321L97.01 110.945L103.929 142.769L109.127 142.398L105.517 98.2739L98.6663 85.8539L87.8491 100.003Z" fill="#2F2E41"/>
<path d="M93.577 67.554L98.5653 71.6299C99.66 72.5244 100.448 73.7382 100.82 75.102C100.989 75.7213 101.07 76.3614 101.059 77.0032L100.91 85.8539L105.484 98.0749C105.484 98.0749 93.0844 102.758 91.4312 98.6259C89.7779 94.4935 93.577 67.554 93.577 67.554Z" fill="#BD1212"/>
<path d="M95.0689 100.771C88.8748 100.771 87.3652 100.818 87.2674 100.798L87.1694 100.778V97.0532L88.6757 90.3613C88.4997 88.2837 88.0873 85.5442 88.1246 83.1985C88.2597 74.7202 87.8428 66.4383 87.8428 66.4383L91.1212 63.4127L92.6105 64.3817L95.3732 67.1438C98.5845 75.0453 101.133 82.4842 101.149 82.9621L101.351 91.1877L100.524 94.4936C96.7845 97.1329 100.201 100.771 95.0689 100.771Z" fill="#2F2E41"/>
<path opacity="0.2" d="M89.2323 73.8242L88.4792 78.5236L93.577 80.6258L89.2323 73.8242Z" fill="black"/>
<path d="M94.3677 62.5311C97.1242 62.5311 99.3588 60.2969 99.3588 57.5409C99.3588 54.785 97.1242 52.5508 94.3677 52.5508C91.6113 52.5508 89.3767 54.785 89.3767 57.5409C89.3767 60.2969 91.6113 62.5311 94.3677 62.5311Z" fill="#FFB6B6"/>
<path opacity="0.2" d="M86.0048 82.8605C87.3331 84.3983 89.1349 85.4512 91.1269 85.8538C93.1189 86.2564 95.1882 85.9857 97.0097 85.0845L98.0959 84.547L86.0048 82.8605Z" fill="black"/>
<path d="M103.372 81.7118C103.15 81.4617 102.875 81.2635 102.567 81.1311C102.26 80.9986 101.927 80.9352 101.592 80.9453C101.258 80.9554 100.929 81.0388 100.63 81.1895C100.331 81.3403 100.069 81.5547 99.8618 81.8178L94.8224 80.4033L93.2158 83.2555L100.36 85.1531C100.825 85.4717 101.391 85.6087 101.951 85.5381C102.51 85.4675 103.024 85.1942 103.395 84.77C103.766 84.3458 103.969 83.8002 103.965 83.2366C103.961 82.6729 103.75 82.1304 103.372 81.7118H103.372Z" fill="#FFB6B6"/>
<path d="M91.3468 84.8769C88.9509 84.8772 85.7091 83.4726 81.8608 80.7523C81.6463 80.6037 81.4651 80.4123 81.3285 80.19C81.1919 79.9677 81.1029 79.7195 81.0673 79.4611C80.7834 77.663 82.5376 75.2322 82.7096 74.9992L84.5536 69.9361C84.5748 69.8538 85.1691 67.6632 86.661 66.8838C86.9751 66.7227 87.3204 66.6315 87.6731 66.6165C88.0258 66.6014 88.3775 66.6629 88.7042 66.7967C91.546 67.8313 89.327 75.8206 89.0224 76.8683L92.7874 78.6402L95.1783 80.1639L98.4526 80.5064L97.5636 84.6198L92.591 84.7317C92.1838 84.8313 91.766 84.8801 91.3468 84.8769Z" fill="#2F2E41"/>
<path d="M100.353 54.2581C99.9531 54.7778 98.5767 55.2373 96.9418 55.6081C96.9444 55.5742 96.9444 55.5403 96.9444 55.5063C96.9362 54.9864 96.8714 54.4689 96.7511 53.963C96.6381 54.5826 96.3999 55.1725 96.0512 55.6969C96.025 55.7361 95.9989 55.7753 95.9702 55.8144C94.5677 56.0912 93.0843 56.3054 91.9221 56.449C92.7212 59.3266 95.7848 61.6871 95.4531 63.4367L86.4767 65.2698C86.5319 64.5428 86.4737 63.8116 86.3043 63.1024C86.1326 64.0384 85.6788 64.8994 85.0037 65.5701L84.241 65.7267L84.0138 64.6065C82.0446 59.8775 84.7895 55.0363 89.2869 52.5321C90.0887 51.3303 91.3338 50.4947 92.75 50.2081L93.8704 49.9783C94.5771 49.8337 95.3054 49.8297 96.0136 49.9666C96.7218 50.1034 97.3962 50.3784 97.9981 50.7758C98.6 51.1733 99.1178 51.6854 99.5218 52.2828C99.9258 52.8803 100.208 53.5515 100.353 54.2581Z" fill="#2F2E41"/>
<path d="M121.796 144.726L121.929 141.742C123.312 141.002 124.856 140.612 126.425 140.604C124.265 142.369 124.535 145.772 123.071 148.145C122.609 148.882 121.987 149.506 121.251 149.969C120.515 150.433 119.684 150.725 118.819 150.824L117.012 151.93C116.764 150.548 116.819 149.129 117.172 147.77C117.526 146.411 118.17 145.145 119.06 144.059C119.565 143.454 120.145 142.916 120.785 142.456C121.218 143.597 121.796 144.726 121.796 144.726Z" fill="#F2F2F2"/>
<path d="M126.177 152H63.2486C63.1618 152 63.0786 151.965 63.0173 151.904C62.9559 151.842 62.9215 151.759 62.9215 151.672C62.9215 151.585 62.9559 151.502 63.0173 151.44C63.0786 151.379 63.1618 151.344 63.2486 151.344H126.177C126.22 151.344 126.263 151.352 126.303 151.369C126.343 151.385 126.379 151.409 126.409 151.44C126.44 151.47 126.464 151.506 126.481 151.546C126.497 151.586 126.506 151.629 126.506 151.672C126.506 151.715 126.497 151.758 126.481 151.798C126.464 151.838 126.44 151.874 126.409 151.904C126.379 151.935 126.343 151.959 126.303 151.975C126.263 151.992 126.22 152 126.177 152Z" fill="#CACACA"/>
</g>
<defs>
<clipPath id="clip0_17_907">
<rect width="237" height="152" fill="white"/>
</clipPath>
</defs>
</svg>
