<svg width="19" height="19" viewBox="0 0 19 19" fill="none" xmlns="http://www.w3.org/2000/svg">
<path d="M10.4303 1.35872C10.0973 0.514572 8.90266 0.51457 8.56974 1.35872L6.6895 6.12612C6.58785 6.38385 6.38385 6.58785 6.12612 6.6895L1.35872 8.56974C0.514572 8.90266 0.51457 10.0973 1.35872 10.4303L6.12612 12.3105C6.38385 12.4121 6.58785 12.6162 6.6895 12.8739L8.56974 17.6413C8.90266 18.4854 10.0973 18.4854 10.4303 17.6413L12.3105 12.8739C12.4121 12.6162 12.6162 12.4121 12.8739 12.3105L17.6413 10.4303C18.4854 10.0973 18.4854 8.90266 17.6413 8.56974L12.8739 6.6895C12.6162 6.58785 12.4121 6.38385 12.3105 6.12612L10.4303 1.35872Z" fill="#E8CA2C"/>
</svg>
